<?xml version="1.0" encoding="utf-8"?>
<!-- Generator: Adobe Illustrator 18.1.1, SVG Export Plug-In . SVG Version: 6.00 Build 0)  -->
<svg version="1.1" id="Capa_1" xmlns="http://www.w3.org/2000/svg" xmlns:xlink="http://www.w3.org/1999/xlink" x="0px" y="0px"
	 viewBox="0 0 708.7 708.7" enable-background="new 0 0 708.7 708.7" xml:space="preserve">
<path id="F831A04C-8F53-4B5A-8FEC-B6B2D5549795_2_" fill="#F6BF04" d="M354.3,651.3c164,0,297-133,297-297s-133-297-297-297
	s-297,133-297,297S190.3,651.3,354.3,651.3z"/>
<g>
	<defs>
		<rect id="SVGID_3_" x="190.2" y="190.2" width="328.4" height="328.4"/>
	</defs>
	<clipPath id="SVGID_2_">
		<use xlink:href="#SVGID_3_"  overflow="visible"/>
	</clipPath>
	<path clip-path="url(#SVGID_2_)" fill="#FFFFFF" d="M354.3,219.7c43.8,0,49,0.2,66.3,1c16,0.7,24.7,3.4,30.5,5.7
		c7.7,3,13.1,6.5,18.9,12.3c5.7,5.7,9.3,11.2,12.3,18.9c2.2,5.8,4.9,14.5,5.7,30.5c0.8,17.3,1,22.5,1,66.3c0,43.8-0.2,49-1,66.3
		c-0.7,16-3.4,24.7-5.7,30.5c-3,7.7-6.5,13.1-12.3,18.9c-5.7,5.7-11.2,9.3-18.9,12.3c-5.8,2.2-14.5,4.9-30.5,5.7
		c-17.3,0.8-22.5,1-66.3,1c-43.8,0-49-0.2-66.3-1c-16-0.7-24.7-3.4-30.5-5.7c-7.7-3-13.1-6.5-18.9-12.3c-5.7-5.7-9.3-11.2-12.3-18.9
		c-2.2-5.8-4.9-14.5-5.7-30.5c-0.8-17.3-1-22.5-1-66.3c0-43.8,0.2-49,1-66.3c0.7-16,3.4-24.7,5.7-30.5c3-7.7,6.5-13.1,12.3-18.9
		c5.7-5.7,11.2-9.3,18.9-12.3c5.8-2.2,14.5-4.9,30.5-5.7C305.3,219.9,310.5,219.7,354.3,219.7 M354.3,190.2c-44.6,0-50.2,0.2-67.7,1
		c-17.5,0.8-29.4,3.6-39.9,7.6c-10.8,4.2-20,9.8-29.1,18.9c-9.1,9.1-14.7,18.3-18.9,29.1c-4.1,10.4-6.8,22.4-7.6,39.9
		c-0.8,17.5-1,23.1-1,67.7c0,44.6,0.2,50.2,1,67.7c0.8,17.5,3.6,29.4,7.6,39.9c4.2,10.8,9.8,20,18.9,29.1
		c9.1,9.1,18.3,14.7,29.1,18.9c10.4,4.1,22.4,6.8,39.9,7.6c17.5,0.8,23.1,1,67.7,1c44.6,0,50.2-0.2,67.7-1
		c17.5-0.8,29.4-3.6,39.9-7.6c10.8-4.2,20-9.8,29.1-18.9c9.1-9.1,14.7-18.3,18.9-29.1c4.1-10.4,6.8-22.4,7.6-39.9
		c0.8-17.5,1-23.1,1-67.7c0-44.6-0.2-50.2-1-67.7c-0.8-17.5-3.6-29.4-7.6-39.9c-4.2-10.8-9.8-20-18.9-29.1
		c-9.1-9.1-18.3-14.7-29.1-18.9c-10.4-4.1-22.4-6.8-39.9-7.6C404.5,190.3,398.9,190.2,354.3,190.2"/>
	<path clip-path="url(#SVGID_2_)" fill="#FFFFFF" d="M354.3,270c-46.6,0-84.3,37.7-84.3,84.3c0,46.6,37.7,84.3,84.3,84.3
		c46.6,0,84.3-37.7,84.3-84.3C438.6,307.8,400.9,270,354.3,270 M354.3,409.1c-30.2,0-54.7-24.5-54.7-54.7s24.5-54.7,54.7-54.7
		c30.2,0,54.7,24.5,54.7,54.7S384.6,409.1,354.3,409.1"/>
	<path clip-path="url(#SVGID_2_)" fill="#FFFFFF" d="M461.7,266.7c0,10.9-8.8,19.7-19.7,19.7c-10.9,0-19.7-8.8-19.7-19.7
		c0-10.9,8.8-19.7,19.7-19.7C452.9,247,461.7,255.8,461.7,266.7"/>
</g>
</svg>
