<?xml version="1.0" encoding="utf-8"?>
<!-- Generator: Adobe Illustrator 18.1.1, SVG Export Plug-In . SVG Version: 6.00 Build 0)  -->
<svg version="1.1" id="Capa_1" xmlns="http://www.w3.org/2000/svg" xmlns:xlink="http://www.w3.org/1999/xlink" x="0px" y="0px"
	 viewBox="0 0 708.7 708.7" enable-background="new 0 0 708.7 708.7" xml:space="preserve">
<path id="F831A04C-8F53-4B5A-8FEC-B6B2D5549795_12_" fill="#F6BF04" d="M354.3,651.3c164,0,297-133,297-297s-133-297-297-297
	s-297,133-297,297S190.3,651.3,354.3,651.3z"/>
<g>
	<g>
		<path fill="#FFFFFF" d="M418,219.9c19.5,0,37.2,8.2,49.5,21.4c15.5-3,30-8.7,43.1-16.5c-5.1,15.8-15.8,29.1-29.8,37.5
			c13.7-1.6,26.8-5.3,39-10.7c-9.1,13.6-20.6,25.6-33.9,35.1c0.1,2.9,0.2,5.8,0.2,8.8c0,89.7-68.3,193.1-193.1,193.1
			c-38.3,0-74-11.2-104-30.5c5.3,0.6,10.7,0.9,16.2,0.9c31.8,0,61.1-10.8,84.3-29.1c-29.7-0.5-54.8-20.2-63.4-47.1
			c4.1,0.8,8.4,1.2,12.8,1.2c6.2,0,12.2-0.8,17.9-2.4c-31-6.2-54.4-33.7-54.4-66.5c0-0.3,0-0.6,0-0.9c9.2,5.1,19.6,8.1,30.7,8.5
			c-18.2-12.2-30.2-32.9-30.2-56.5c0-12.4,3.3-24.1,9.2-34.1c33.5,41.1,83.5,68.1,139.9,70.9c-1.2-5-1.8-10.1-1.8-15.5
			C350.1,250.3,380.5,219.9,418,219.9 M519.7,251.7L519.7,251.7 M418,194.3c-46.9,0-85.8,34.7-92.4,79.7c-14-3.1-27.6-8-40.5-14.6
			c-20.6-10.6-38.5-25.2-53.2-43.2c-4.9-6-12.2-9.4-19.8-9.4c-0.7,0-1.3,0-2,0.1c-8.4,0.7-15.9,5.4-20.1,12.6
			c-8.3,14.2-12.7,30.5-12.7,47c0,10.9,1.9,21.6,5.5,31.5c-3.7,4.4-5.9,10.1-6,16c0,0.4,0,0.9,0,1.3c0,21.7,7.6,42.9,21.5,59.6
			c0.9,1.1,1.8,2.2,2.8,3.2c-0.8,4.2-0.6,8.5,0.7,12.7c5.1,15.9,14.2,29.8,26,40.5c-7.3,1.5-14.9,2.3-22.5,2.3
			c-4.4,0-8.9-0.3-13.2-0.8c-1-0.1-2-0.2-3-0.2c-10.7,0-20.4,6.7-24.1,17c-4,11.2,0.2,23.7,10.3,30.2c35.2,22.6,76,34.5,117.8,34.5
			c33.6,0,65-6.7,93.6-19.9c26.3-12.2,49.5-29.6,69-51.7c34.9-39.6,55.2-91.7,56.1-143.6c11.1-9.5,20.9-20.5,29.1-32.8
			c2.9-4.1,4.6-9.2,4.6-14.6c0-8.3-3.9-15.6-10-20.3c2.6-9.8-0.8-20.2-8.8-26.6c-4.6-3.7-10.3-5.6-15.9-5.6c-4.5,0-9,1.2-13,3.6
			c-7.3,4.4-15.1,7.8-23.2,10.4C458.2,201.1,438.4,194.3,418,194.3L418,194.3z"/>
	</g>
</g>
</svg>
